<?xml version="1.0" encoding="utf-8"?>
<!-- Uploaded to: SVG Repo, www.svgrepo.com, Generator: SVG Repo Mixer Tools -->
<svg width="800px" height="800px" viewBox="0 0 1024 1024" class="icon"  version="1.1" xmlns="http://www.w3.org/2000/svg"><path d="M563.2 319.3c0-64.2-42.8-1.7-42.8-118.6v-52.5c0-5.7-4.7-10.4-10.4-10.4h-36.7c-5.7 0-10.4 4.7-10.4 10.4v52.5c0 116.9-42.8 54.4-42.8 118.6v166.9c0 8.6 7 15.7 15.7 15.7h111.9c8.6 0 15.7-7 15.7-15.7l-0.2-166.9z" fill="#D68231" /><path d="M462.8 154.1h57.6v22.6h-57.6z" fill="" /><path d="M452.3 318.6h78.6v143h-78.6z" fill="#FFFFFF" /><path d="M529.6 153.2c0 5.2-4.3 9.5-9.5 9.5h-56.9c-5.2 0-9.5-4.3-9.5-9.5v-18.1c0-5.2 4.3-9.5 9.5-9.5h56.9c5.2 0 9.5 4.3 9.5 9.5v18.1z" fill="#A4A9AD" /><path d="M349.5 343.8c0-64.2-42.8-1.7-42.8-118.6v-52.5c0-5.7-4.7-10.4-10.4-10.4h-36.7c-5.7 0-10.4 4.7-10.4 10.4v52.5c0 116.9-42.8 54.4-42.8 118.6v166.9c0 8.6 7 15.7 15.7 15.7H334c8.6 0 15.7-7 15.7-15.7l-0.2-166.9z" fill="#D68231" /><path d="M249.1 178.6h57.6v22.6h-57.6z" fill="" /><path d="M238.6 343h78.6v143h-78.6z" fill="#FFFFFF" /><path d="M315.8 177.7c0 5.2-4.3 9.5-9.5 9.5h-56.9c-5.2 0-9.5-4.3-9.5-9.5v-18.1c0-5.2 4.3-9.5 9.5-9.5h56.9c5.2 0 9.5 4.3 9.5 9.5v18.1z" fill="#A4A9AD" /><path d="M112.7 441h800.9v432.2H112.7z" fill="#00AD68" /><path d="M112.7 805.1h84.6v40.7h-84.6zM356.8 510.7h84.6v40.7h-84.6zM440.3 762.7h84.6v40.7h-84.6zM634 680.3h84.6V721H634zM793.1 787.4h84.6v40.7h-84.6zM664.8 471.9h84.6v40.7h-84.6zM871.2 587h42.3v40.7h-42.3zM112.7 601H155v40.7h-42.3z" fill="" /><path d="M660.8 318.6h183.9v96H660.8z" fill="#A4A9AD" /><path d="M660.8 318.6h183.9v36.3H660.8z" fill="" /><path d="M858.2 290.7c0-5.4-4.4-9.8-9.8-9.8H657.1c-5.4 0-9.8 4.4-9.8 9.8v26.7c0 5.4 4.4 9.8 9.8 9.8h191.4c5.4 0 9.8-4.4 9.8-9.8l-0.1-26.7z" fill="#D1D3D3" /><path d="M913.5 492.2V411c0-10.7-8.8-19.5-19.5-19.5H132.2c-10.7 0-19.5 8.8-19.5 19.5v81.2h800.8z" fill="#333E48" /><path d="M676.3 568.9h183.9v304.2H676.3z" fill="#FFB819" /><path d="M722.6 736.5m-15.5 0a15.5 15.5 0 1 0 31 0 15.5 15.5 0 1 0-31 0Z" fill="#333E48" /><path d="M191.5 783c-10.7 0-19.5-8.8-19.5-19.5V568.9c0-10.7 8.8-19.5 19.5-19.5h398.2c10.7 0 19.5 8.8 19.5 19.5v194.6c0 10.7-8.8 19.5-19.5 19.5H191.5z" fill="#FFFFFF" /><path d="M211 744V588.4L300.8 744zM300.8 744l89.8-155.6L480.4 744z" fill="#218649" /><path d="M390.6 588.4L300.8 744 211 588.4z" fill="#FFB819" /><path d="M570.2 588.4L480.4 744l-89.8-155.6z" fill="#FFB819" /><path d="M480.4 744l89.8-155.6V744z" fill="#218649" /><path d="M959.1 891.4c0 4.2-3.5 7.7-7.7 7.7H74.8c-4.2 0-7.7-3.5-7.7-7.7v-27.5c0-4.2 3.5-7.7 7.7-7.7h876.6c4.2 0 7.7 3.5 7.7 7.7v27.5z" fill="#333E48" /><path d="M655.4 856.2h225.8v42.9H655.4z" fill="#A4A9AD" /></svg>