<?xml version="1.0" encoding="iso-8859-1"?>
<!-- Uploaded to: SVG Repo, www.svgrepo.com, Generator: SVG Repo Mixer Tools -->
<svg height="800px" width="800px" version="1.1" id="Layer_1" xmlns="http://www.w3.org/2000/svg" xmlns:xlink="http://www.w3.org/1999/xlink" 
	 viewBox="0 0 512.001 512.001" xml:space="preserve">
<g>
	<path style="fill:#47A7DD;" d="M492.93,433.734c-48.056,0-48.056-32.575-96.111-32.575s-48.056,32.575-96.111,32.575
		c-48.049,0-48.049-32.575-96.099-32.575c-48.047,0-48.047,32.575-96.094,32.575c-48.031,0-48.031-32.575-96.061-32.575v-68.845
		c48.031,0,48.031,32.575,96.061,32.575c48.047,0,48.047-32.575,96.094-32.575c48.049,0,48.049,32.575,96.099,32.575
		c48.056,0,48.056-32.575,96.111-32.575s48.056,32.575,96.111,32.575"/>
	<path style="fill:#47A7DD;" d="M492.93,502.577c-48.056,0-48.056-32.575-96.111-32.575s-48.056,32.575-96.111,32.575
		c-48.049,0-48.049-32.575-96.099-32.575c-48.047,0-48.047,32.575-96.094,32.575c-48.031,0-48.031-32.575-96.061-32.575v-68.845
		c48.031,0,48.031,32.575,96.061,32.575c48.047,0,48.047-32.575,96.094-32.575c48.049,0,48.049,32.575,96.099,32.575
		c48.056,0,48.056-32.575,96.111-32.575s48.056,32.575,96.111,32.575"/>
</g>
<path d="M112.844,65.166c4.856,1.871,10.31-0.549,12.18-5.405c3.223-8.365,8.09-15.839,14.464-22.214
	c12.072-12.06,28.112-18.702,45.165-18.702c35.219,0,63.873,28.647,63.873,63.861c0,5.204,4.219,9.423,9.423,9.423
	c5.205,0,9.423-4.219,9.423-9.423C267.372,37.102,230.264,0,184.653,0c-22.084,0-42.853,8.6-58.487,24.219
	c-8.252,8.252-14.552,17.931-18.727,28.767C105.568,57.843,107.988,63.295,112.844,65.166z"/>
<path d="M492.93,493.155c-21.134,0-31.16-6.796-42.769-14.664c-12.384-8.395-26.421-17.911-53.342-17.911
	s-40.959,9.516-53.342,17.911c-5.757,3.902-11.194,7.588-17.785,10.268c-4.821,1.961-7.14,7.458-5.179,12.278
	c1.96,4.819,7.459,7.14,12.277,5.179c8.426-3.427,14.951-7.85,21.26-12.126c11.609-7.869,21.634-14.664,42.769-14.664
	s31.16,6.796,42.769,14.664C451.971,502.484,466.008,512,492.93,512c5.205,0,9.423-4.219,9.423-9.423
	C502.352,497.374,498.134,493.155,492.93,493.155z"/>
<path d="M300.707,493.155c-21.132,0-31.155-6.796-42.761-14.664c-12.384-8.395-26.42-17.911-53.337-17.911
	c-26.916,0-40.952,9.516-53.335,17.911c-11.606,7.869-21.629,14.664-42.76,14.664c-21.122,0-31.14-6.796-42.741-14.663
	c-12.379-8.395-26.41-17.911-53.319-17.911c-5.204,0-9.423,4.219-9.423,9.423s4.219,9.423,9.423,9.423
	c21.122,0,31.14,6.796,42.743,14.663c12.379,8.396,26.41,17.912,53.319,17.912c26.916,0,40.952-9.516,53.335-17.911
	c11.606-7.869,21.629-14.664,42.76-14.664c21.132,0,31.155,6.796,42.763,14.664c12.384,8.395,26.42,17.911,53.337,17.911
	c5.205,0,9.423-4.219,9.423-9.423C310.132,497.375,305.911,493.155,300.707,493.155z"/>
<path d="M450.161,340.802c-12.384-8.395-26.421-17.911-53.342-17.911c-6.37,0-12.164,0.513-17.713,1.565
	c-5.112,0.97-8.47,5.902-7.5,11.014c0.97,5.113,5.899,8.468,11.014,7.5c4.377-0.832,9.022-1.235,14.199-1.235
	c21.134,0,31.16,6.796,42.769,14.664c12.384,8.395,26.421,17.911,53.342,17.911c5.205,0,9.423-4.219,9.423-9.423
	s-4.218-9.423-9.423-9.423C471.795,355.468,461.77,348.671,450.161,340.802z"/>
<path d="M12.453,341.737c21.122,0,31.14,6.796,42.741,14.663c6.307,4.277,12.827,8.699,21.25,12.126
	c1.163,0.474,2.366,0.697,3.549,0.697c3.719,0,7.243-2.216,8.73-5.873c1.962-4.821-0.356-10.319-5.176-12.28
	c-6.587-2.681-12.022-6.366-17.775-10.268c-12.379-8.396-26.41-17.912-53.319-17.912c-5.204,0-9.423,4.219-9.423,9.423
	C3.032,337.517,7.249,341.737,12.453,341.737z"/>
<path d="M426.252,0c-22.084,0-42.854,8.6-58.487,24.219c-15.627,15.625-24.231,36.395-24.231,58.487v73.851H120.781V88.988
	c0-5.204-4.219-9.423-9.423-9.423s-9.423,4.219-9.423,9.423v335.07c-16.751-1.271-25.841-7.409-36.163-14.409
	c-12.38-8.396-26.41-17.912-53.32-17.912c-5.204,0-9.423,4.219-9.423,9.423s4.219,9.423,9.423,9.423
	c21.122,0,31.14,6.796,42.741,14.663c12.38,8.396,26.41,17.912,53.319,17.912c26.916,0,40.952-9.516,53.335-17.911
	c11.606-7.869,21.629-14.664,42.76-14.664c21.132,0,31.155,6.796,42.763,14.664c12.384,8.395,26.42,17.911,53.337,17.911
	c26.921,0,40.959-9.516,53.342-17.911c11.609-7.869,21.634-14.664,42.769-14.664c21.134,0,31.16,6.796,42.769,14.664
	c12.384,8.395,26.421,17.911,53.342,17.911c5.205,0,9.423-4.219,9.423-9.423s-4.218-9.423-9.423-9.423
	c-21.134,0-31.16-6.796-42.769-14.664c-12.384-8.395-26.421-17.911-53.342-17.911c-14.722,0-25.587,2.848-34.439,6.801V82.706
	c0-17.058,6.645-33.096,18.708-45.159c12.07-12.06,28.108-18.702,45.164-18.702c35.219,0,63.873,28.647,63.873,63.861
	c0,5.204,4.218,9.423,9.423,9.423c5.205,0,9.423-4.219,9.423-9.423C508.97,37.102,471.863,0,426.252,0z M343.534,175.403v77.947
	h-17.692c-5.205,0-9.423,4.219-9.423,9.423s4.218,9.423,9.423,9.423h17.692v77.947H120.781v-77.947h173.651
	c5.205,0,9.423-4.219,9.423-9.423s-4.218-9.423-9.423-9.423H120.78v-77.947H343.534z M343.476,409.647
	c-11.609,7.869-21.634,14.664-42.769,14.664c-21.132,0-31.155-6.796-42.761-14.664c-12.384-8.395-26.42-17.911-53.337-17.911
	c-26.916,0-40.952,9.516-53.335,17.911c-9.094,6.165-17.239,11.655-30.493,13.751v-54.409h222.752v40.619
	C343.515,409.621,343.495,409.634,343.476,409.647z"/>
</svg>