<?xml version="1.0" encoding="iso-8859-1"?>
<!-- Uploaded to: SVG Repo, www.svgrepo.com, Generator: SVG Repo Mixer Tools -->
<svg fill="#000000" height="800px" width="800px" version="1.1" id="Layer_1" xmlns="http://www.w3.org/2000/svg" xmlns:xlink="http://www.w3.org/1999/xlink" 
	 viewBox="0 0 480 480" xml:space="preserve">
<g>
	<g>
		<path d="M448,232.808V112c0-39.696-32.304-72-72-72h-96c0-22.056-17.944-40-40-40c-22.056,0-40,17.944-40,40h-96
			c-39.696,0-72,32.304-72,72v120.808C13.768,236.528,0,252.688,0,272v8c0,4.416,3.584,8,8,8h73.008l31.336,27.232l17.64,90.464
			c0.424,2.192,1.752,4.112,3.656,5.28l104.688,64.496c1.264,0.776,2.72,1.184,4.192,1.184c0.272,0,0.552-0.016,0.824-0.04
			l133.744-13.864C380.032,472.688,389.128,480,400,480h48c13.232,0,24-10.768,24-24V344c0-13.232-10.768-24-24-24h-48
			c-10.576,0-19.472,6.92-22.664,16.44l-13.592-10.184l-3.992-19.912L370.16,288H472c4.416,0,8-3.584,8-8v-8
			C480,252.688,466.232,236.528,448,232.808z M392,454V351.432V344c0-4.408,3.592-8,8-8h48c4.408,0,8,3.592,8,8v112
			c0,4.408-3.592,8-8,8h-48c-4.408,0-8-3.592-8-8V454z M240,16c13.232,0,24,10.768,24,24h-48C216,26.768,226.768,16,240,16z M48,112
			c0-30.88,25.12-56,56-56h104h64h104c30.88,0,56,25.12,56,56v120h-56v-24c0-4.416-3.584-8-8-8c-4.416,0-8,3.584-8,8v24H48V112z
			 M376,355.432v91.352l-131.6,13.648L145.016,399.2l-17.496-89.728c-0.336-1.752-1.256-3.336-2.608-4.504L105.4,288h46.352
			l40.8,80.536c0.96,1.888,2.624,3.328,4.64,3.992l64.144,21.08c2.48,0.808,5.224,0.36,7.328-1.224l33.144-25.12
			c1.984-1.504,3.152-3.832,3.168-6.32l0.344-51.872L319.008,288h32.76l-7.392,13.04c-0.952,1.672-1.272,3.624-0.888,5.512
			l5.168,25.84c0.384,1.928,1.472,3.656,3.048,4.832L376,355.432z M169.688,288h130.24l-9.304,14.312
			c-0.832,1.28-1.28,2.776-1.296,4.304l-0.336,50.272l-26.656,20.208L205.32,358.36L169.688,288z M365.504,272h-50.832h-158H84H16
			c0-13.232,10.768-24,24-24h400c13.232,0,24,10.768,24,24H365.504z"/>
	</g>
</g>
<g>
	<g>
		<circle cx="431.248" cy="435.12" r="13.144"/>
	</g>
</g>
<g>
	<g>
		<path d="M152,104h-48c-4.416,0-8,3.584-8,8s3.584,8,8,8h48c4.416,0,8-3.584,8-8S156.416,104,152,104z"/>
	</g>
</g>
<g>
	<g>
		<path d="M192,104h-8c-4.416,0-8,3.584-8,8s3.584,8,8,8h8c4.416,0,8-3.584,8-8S196.416,104,192,104z"/>
	</g>
</g>
</svg>