<?xml version="1.0" encoding="utf-8"?><!-- Uploaded to: SVG Repo, www.svgrepo.com, Generator: SVG Repo Mixer Tools -->
<svg fill="#000000" width="800px" height="800px" viewBox="0 0 24 24" id="bathtub-2" data-name="Flat Line" xmlns="http://www.w3.org/2000/svg" class="icon flat-line"><path id="secondary" d="M9,8h2a4,4,0,0,1,4,4v8a4,4,0,0,1-4,4H9a0,0,0,0,1,0,0V8A0,0,0,0,1,9,8Z" transform="translate(28 4) rotate(90)" style="fill: rgb(44, 169, 188); stroke-width: 2;"></path><path id="primary" d="M11,6h0A3,3,0,0,0,8,3H8A3,3,0,0,0,5,6v7" style="fill: none; stroke: rgb(0, 0, 0); stroke-linecap: round; stroke-linejoin: round; stroke-width: 2;"></path><path id="primary-2" data-name="primary" d="M9,8a2,2,0,0,1,2-2h0a2,2,0,0,1,2,2Zm8.5,11,.5,2M6.5,19,6,21M3,13H21m-5,6H8a4,4,0,0,1-4-4V13H20v2A4,4,0,0,1,16,19Z" style="fill: none; stroke: rgb(0, 0, 0); stroke-linecap: round; stroke-linejoin: round; stroke-width: 2;"></path></svg>