<?xml version="1.0" encoding="utf-8"?>
<!-- Uploaded to: SVG Repo, www.svgrepo.com, Generator: SVG Repo Mixer Tools -->
<svg width="800px" height="800px" viewBox="0 0 1024 1024" class="icon"  version="1.1" xmlns="http://www.w3.org/2000/svg"><path d="M513.252 226.435l-48.5-48.5" fill="#FC709B" /><path d="M513.251 230.435a3.994 3.994 0 0 1-2.829-1.171l-48.5-48.5a4 4 0 0 1 5.657-5.657l48.5 48.5a4 4 0 0 1-2.828 6.828z" fill="#515151" /><path d="M507.898 230.78l70.75-70.75" fill="#FC709B" /><path d="M507.898 234.78a4 4 0 0 1-2.829-6.828l70.75-70.75a4 4 0 0 1 5.657 5.657l-70.75 70.75a3.99 3.99 0 0 1-2.828 1.171z" fill="#515151" /><path d="M512.066 276.277m-51 0a51 51 0 1 0 102 0 51 51 0 1 0-102 0Z" fill="#FC709B" /><path d="M512.066 331.277c-30.327 0-55-24.673-55-55s24.673-55 55-55 55 24.673 55 55-24.673 55-55 55z m0-102c-25.916 0-47 21.084-47 47s21.084 47 47 47 47-21.084 47-47-21.084-47-47-47z" fill="#515151" /><path d="M876.066 769.352h-728c-11.046 0-20-8.954-20-20v-472c0-11.046 8.954-20 20-20h728c11.046 0 20 8.954 20 20v472c0 11.046-8.954 20-20 20z" fill="#2CC4FE" /><path d="M876.066 773.352h-728c-13.234 0-24-10.766-24-24v-472c0-13.233 10.766-24 24-24h728c13.233 0 24 10.767 24 24v472c0 13.234-10.766 24-24 24z m-728-512c-8.822 0-16 7.178-16 16v472c0 8.822 7.178 16 16 16h728c8.822 0 16-7.178 16-16v-472c0-8.822-7.178-16-16-16h-728z" fill="#515151" /><path d="M684.116 705.277H212.115c-11.046 0-20-8.954-20-20V341.276c0-11.046 8.954-20 20-20h472.001c11.046 0 20 8.954 20 20v344.001c0 11.046-8.954 20-20 20z" fill="#A1E4FD" /><path d="M684.116 709.277H212.115c-13.234 0-24-10.766-24-24V341.276c0-13.234 10.766-24 24-24h472.001c13.234 0 24 10.766 24 24v344.002c0 13.233-10.766 23.999-24 23.999zM212.115 325.276c-8.822 0-16 7.178-16 16v344.002c0 8.822 7.178 16 16 16h472.001c8.822 0 16-7.178 16-16V341.276c0-8.822-7.178-16-16-16H212.115z" fill="#515151" /><path d="M799.116 577.315m-29 0a29 29 0 1 0 58 0 29 29 0 1 0-58 0Z" fill="#FC709B" /><path d="M799.116 610.315c-18.196 0-33-14.804-33-33s14.804-33 33-33 33 14.804 33 33-14.804 33-33 33z m0-58c-13.785 0-25 11.215-25 25s11.215 25 25 25 25-11.215 25-25-11.215-25-25-25z" fill="#515151" /><path d="M778.421 480.352m-1.972 0a1.972 1.972 0 1 0 3.944 0 1.972 1.972 0 1 0-3.944 0Z" fill="#2CC4FE" /><path d="M778.421 486.324c-3.293 0-5.972-2.679-5.972-5.972s2.679-5.972 5.972-5.972 5.972 2.679 5.972 5.972-2.679 5.972-5.972 5.972z m0-8c-1.118 0-2.028 0.91-2.028 2.028s0.91 2.028 2.028 2.028c1.119 0 2.028-0.91 2.028-2.028s-0.909-2.028-2.028-2.028z" fill="#515151" /><path d="M792.884 480.352m-1.972 0a1.972 1.972 0 1 0 3.944 0 1.972 1.972 0 1 0-3.944 0Z" fill="#2CC4FE" /><path d="M792.884 486.324c-3.293 0-5.972-2.679-5.972-5.972s2.679-5.972 5.972-5.972 5.972 2.679 5.972 5.972-2.679 5.972-5.972 5.972z m0-8c-1.118 0-2.028 0.91-2.028 2.028s0.91 2.028 2.028 2.028 2.028-0.91 2.028-2.028-0.91-2.028-2.028-2.028z" fill="#515151" /><path d="M807.347 480.352m-1.972 0a1.972 1.972 0 1 0 3.944 0 1.972 1.972 0 1 0-3.944 0Z" fill="#2CC4FE" /><path d="M807.347 486.324c-3.293 0-5.972-2.679-5.972-5.972s2.679-5.972 5.972-5.972 5.972 2.679 5.972 5.972-2.679 5.972-5.972 5.972z m0-8c-1.118 0-2.028 0.91-2.028 2.028s0.91 2.028 2.028 2.028c1.119 0 2.028-0.91 2.028-2.028s-0.909-2.028-2.028-2.028z" fill="#515151" /><path d="M821.81 480.352m-1.972 0a1.972 1.972 0 1 0 3.944 0 1.972 1.972 0 1 0-3.944 0Z" fill="#2CC4FE" /><path d="M821.811 486.324c-3.293 0-5.972-2.679-5.972-5.972s2.679-5.972 5.972-5.972 5.972 2.679 5.972 5.972-2.679 5.972-5.972 5.972z m0-8c-1.119 0-2.028 0.91-2.028 2.028s0.91 2.028 2.028 2.028c1.118 0 2.028-0.91 2.028-2.028s-0.91-2.028-2.028-2.028z" fill="#515151" /><path d="M778.421 500.276m-1.972 0a1.972 1.972 0 1 0 3.944 0 1.972 1.972 0 1 0-3.944 0Z" fill="#2CC4FE" /><path d="M778.421 506.248c-3.293 0-5.972-2.679-5.972-5.972s2.679-5.972 5.972-5.972 5.972 2.679 5.972 5.972-2.679 5.972-5.972 5.972z m0-8a2.03 2.03 0 0 0-2.028 2.028 2.03 2.03 0 0 0 2.028 2.028 2.03 2.03 0 0 0 2.028-2.028 2.03 2.03 0 0 0-2.028-2.028z" fill="#515151" /><path d="M792.884 500.276m-1.972 0a1.972 1.972 0 1 0 3.944 0 1.972 1.972 0 1 0-3.944 0Z" fill="#2CC4FE" /><path d="M792.884 506.248c-3.293 0-5.972-2.679-5.972-5.972s2.679-5.972 5.972-5.972 5.972 2.679 5.972 5.972-2.679 5.972-5.972 5.972z m0-8a2.03 2.03 0 0 0-2.028 2.028c0 1.119 0.91 2.028 2.028 2.028s2.028-0.91 2.028-2.028a2.03 2.03 0 0 0-2.028-2.028z" fill="#515151" /><path d="M807.347 500.276m-1.972 0a1.972 1.972 0 1 0 3.944 0 1.972 1.972 0 1 0-3.944 0Z" fill="#2CC4FE" /><path d="M807.347 506.248c-3.293 0-5.972-2.679-5.972-5.972s2.679-5.972 5.972-5.972 5.972 2.679 5.972 5.972-2.679 5.972-5.972 5.972z m0-8a2.03 2.03 0 0 0-2.028 2.028 2.03 2.03 0 0 0 2.028 2.028 2.03 2.03 0 0 0 2.028-2.028 2.03 2.03 0 0 0-2.028-2.028z" fill="#515151" /><path d="M821.81 500.276m-1.972 0a1.972 1.972 0 1 0 3.944 0 1.972 1.972 0 1 0-3.944 0Z" fill="#2CC4FE" /><path d="M821.811 506.248c-3.293 0-5.972-2.679-5.972-5.972s2.679-5.972 5.972-5.972 5.972 2.679 5.972 5.972-2.679 5.972-5.972 5.972z m0-8a2.03 2.03 0 0 0-2.028 2.028 2.03 2.03 0 0 0 2.028 2.028 2.03 2.03 0 0 0 2.028-2.028 2.03 2.03 0 0 0-2.028-2.028z" fill="#515151" /><path d="M778.421 460.276m-1.972 0a1.972 1.972 0 1 0 3.944 0 1.972 1.972 0 1 0-3.944 0Z" fill="#2CC4FE" /><path d="M778.421 466.248c-3.293 0-5.972-2.679-5.972-5.972s2.679-5.972 5.972-5.972 5.972 2.679 5.972 5.972-2.679 5.972-5.972 5.972z m0-8a2.03 2.03 0 0 0-2.028 2.028 2.03 2.03 0 0 0 2.028 2.028 2.03 2.03 0 0 0 2.028-2.028 2.03 2.03 0 0 0-2.028-2.028z" fill="#515151" /><path d="M792.884 460.276m-1.972 0a1.972 1.972 0 1 0 3.944 0 1.972 1.972 0 1 0-3.944 0Z" fill="#2CC4FE" /><path d="M792.884 466.248c-3.293 0-5.972-2.679-5.972-5.972s2.679-5.972 5.972-5.972 5.972 2.679 5.972 5.972-2.679 5.972-5.972 5.972z m0-8a2.03 2.03 0 0 0-2.028 2.028c0 1.119 0.91 2.028 2.028 2.028s2.028-0.91 2.028-2.028a2.03 2.03 0 0 0-2.028-2.028z" fill="#515151" /><path d="M807.347 460.276m-1.972 0a1.972 1.972 0 1 0 3.944 0 1.972 1.972 0 1 0-3.944 0Z" fill="#2CC4FE" /><path d="M807.347 466.248c-3.293 0-5.972-2.679-5.972-5.972s2.679-5.972 5.972-5.972 5.972 2.679 5.972 5.972-2.679 5.972-5.972 5.972z m0-8a2.03 2.03 0 0 0-2.028 2.028 2.03 2.03 0 0 0 2.028 2.028 2.03 2.03 0 0 0 2.028-2.028 2.03 2.03 0 0 0-2.028-2.028z" fill="#515151" /><path d="M821.81 460.276m-1.972 0a1.972 1.972 0 1 0 3.944 0 1.972 1.972 0 1 0-3.944 0Z" fill="#2CC4FE" /><path d="M821.811 466.248c-3.293 0-5.972-2.679-5.972-5.972s2.679-5.972 5.972-5.972 5.972 2.679 5.972 5.972-2.679 5.972-5.972 5.972z m0-8a2.03 2.03 0 0 0-2.028 2.028 2.03 2.03 0 0 0 2.028 2.028 2.03 2.03 0 0 0 2.028-2.028 2.03 2.03 0 0 0-2.028-2.028z" fill="#515151" /><path d="M778.421 440.352m-1.972 0a1.972 1.972 0 1 0 3.944 0 1.972 1.972 0 1 0-3.944 0Z" fill="#2CC4FE" /><path d="M778.421 446.324c-3.293 0-5.972-2.679-5.972-5.972s2.679-5.972 5.972-5.972 5.972 2.679 5.972 5.972-2.679 5.972-5.972 5.972z m0-8c-1.118 0-2.028 0.91-2.028 2.028s0.91 2.028 2.028 2.028c1.119 0 2.028-0.91 2.028-2.028s-0.909-2.028-2.028-2.028z" fill="#515151" /><path d="M792.884 440.352m-1.972 0a1.972 1.972 0 1 0 3.944 0 1.972 1.972 0 1 0-3.944 0Z" fill="#2CC4FE" /><path d="M792.884 446.324c-3.293 0-5.972-2.679-5.972-5.972s2.679-5.972 5.972-5.972 5.972 2.679 5.972 5.972-2.679 5.972-5.972 5.972z m0-8c-1.118 0-2.028 0.91-2.028 2.028s0.91 2.028 2.028 2.028 2.028-0.91 2.028-2.028-0.91-2.028-2.028-2.028z" fill="#515151" /><path d="M807.347 440.352m-1.972 0a1.972 1.972 0 1 0 3.944 0 1.972 1.972 0 1 0-3.944 0Z" fill="#2CC4FE" /><path d="M807.347 446.324c-3.293 0-5.972-2.679-5.972-5.972s2.679-5.972 5.972-5.972 5.972 2.679 5.972 5.972-2.679 5.972-5.972 5.972z m0-8c-1.118 0-2.028 0.91-2.028 2.028s0.91 2.028 2.028 2.028c1.119 0 2.028-0.91 2.028-2.028s-0.909-2.028-2.028-2.028z" fill="#515151" /><path d="M821.81 440.352m-1.972 0a1.972 1.972 0 1 0 3.944 0 1.972 1.972 0 1 0-3.944 0Z" fill="#2CC4FE" /><path d="M821.811 446.324c-3.293 0-5.972-2.679-5.972-5.972s2.679-5.972 5.972-5.972 5.972 2.679 5.972 5.972-2.679 5.972-5.972 5.972z m0-8c-1.119 0-2.028 0.91-2.028 2.028s0.91 2.028 2.028 2.028c1.118 0 2.028-0.91 2.028-2.028s-0.91-2.028-2.028-2.028z" fill="#515151" /><path d="M778.421 420.352m-1.972 0a1.972 1.972 0 1 0 3.944 0 1.972 1.972 0 1 0-3.944 0Z" fill="#2CC4FE" /><path d="M778.421 426.324c-3.293 0-5.972-2.679-5.972-5.972s2.679-5.972 5.972-5.972 5.972 2.679 5.972 5.972-2.679 5.972-5.972 5.972z m0-8c-1.118 0-2.028 0.91-2.028 2.028s0.91 2.028 2.028 2.028c1.119 0 2.028-0.91 2.028-2.028s-0.909-2.028-2.028-2.028z" fill="#515151" /><path d="M792.884 420.352m-1.972 0a1.972 1.972 0 1 0 3.944 0 1.972 1.972 0 1 0-3.944 0Z" fill="#2CC4FE" /><path d="M792.884 426.324c-3.293 0-5.972-2.679-5.972-5.972s2.679-5.972 5.972-5.972 5.972 2.679 5.972 5.972-2.679 5.972-5.972 5.972z m0-8c-1.118 0-2.028 0.91-2.028 2.028s0.91 2.028 2.028 2.028 2.028-0.91 2.028-2.028-0.91-2.028-2.028-2.028z" fill="#515151" /><path d="M807.347 420.352m-1.972 0a1.972 1.972 0 1 0 3.944 0 1.972 1.972 0 1 0-3.944 0Z" fill="#2CC4FE" /><path d="M807.347 426.324c-3.293 0-5.972-2.679-5.972-5.972s2.679-5.972 5.972-5.972 5.972 2.679 5.972 5.972-2.679 5.972-5.972 5.972z m0-8c-1.118 0-2.028 0.91-2.028 2.028s0.91 2.028 2.028 2.028c1.119 0 2.028-0.91 2.028-2.028s-0.909-2.028-2.028-2.028z" fill="#515151" /><path d="M821.81 420.352m-1.972 0a1.972 1.972 0 1 0 3.944 0 1.972 1.972 0 1 0-3.944 0Z" fill="#2CC4FE" /><path d="M821.811 426.324c-3.293 0-5.972-2.679-5.972-5.972s2.679-5.972 5.972-5.972 5.972 2.679 5.972 5.972-2.679 5.972-5.972 5.972z m0-8c-1.119 0-2.028 0.91-2.028 2.028s0.91 2.028 2.028 2.028c1.118 0 2.028-0.91 2.028-2.028s-0.91-2.028-2.028-2.028z" fill="#515151" /><path d="M778.421 400.352m-1.972 0a1.972 1.972 0 1 0 3.944 0 1.972 1.972 0 1 0-3.944 0Z" fill="#2CC4FE" /><path d="M778.421 406.324c-3.293 0-5.972-2.679-5.972-5.972s2.679-5.972 5.972-5.972 5.972 2.679 5.972 5.972-2.679 5.972-5.972 5.972z m0-8c-1.118 0-2.028 0.91-2.028 2.028s0.91 2.028 2.028 2.028c1.119 0 2.028-0.91 2.028-2.028s-0.909-2.028-2.028-2.028z" fill="#515151" /><path d="M792.884 400.352m-1.972 0a1.972 1.972 0 1 0 3.944 0 1.972 1.972 0 1 0-3.944 0Z" fill="#2CC4FE" /><path d="M792.884 406.324c-3.293 0-5.972-2.679-5.972-5.972s2.679-5.972 5.972-5.972 5.972 2.679 5.972 5.972-2.679 5.972-5.972 5.972z m0-8c-1.118 0-2.028 0.91-2.028 2.028s0.91 2.028 2.028 2.028 2.028-0.91 2.028-2.028-0.91-2.028-2.028-2.028z" fill="#515151" /><path d="M807.347 400.352m-1.972 0a1.972 1.972 0 1 0 3.944 0 1.972 1.972 0 1 0-3.944 0Z" fill="#2CC4FE" /><path d="M807.347 406.324c-3.293 0-5.972-2.679-5.972-5.972s2.679-5.972 5.972-5.972 5.972 2.679 5.972 5.972-2.679 5.972-5.972 5.972z m0-8c-1.118 0-2.028 0.91-2.028 2.028s0.91 2.028 2.028 2.028c1.119 0 2.028-0.91 2.028-2.028s-0.909-2.028-2.028-2.028z" fill="#515151" /><path d="M821.81 400.352m-1.972 0a1.972 1.972 0 1 0 3.944 0 1.972 1.972 0 1 0-3.944 0Z" fill="#2CC4FE" /><path d="M821.811 406.324c-3.293 0-5.972-2.679-5.972-5.972s2.679-5.972 5.972-5.972 5.972 2.679 5.972 5.972-2.679 5.972-5.972 5.972z m0-8c-1.119 0-2.028 0.91-2.028 2.028s0.91 2.028 2.028 2.028c1.118 0 2.028-0.91 2.028-2.028s-0.91-2.028-2.028-2.028z" fill="#515151" /><path d="M778.421 380.352m-1.972 0a1.972 1.972 0 1 0 3.944 0 1.972 1.972 0 1 0-3.944 0Z" fill="#2CC4FE" /><path d="M778.421 386.324c-3.293 0-5.972-2.679-5.972-5.972s2.679-5.972 5.972-5.972 5.972 2.679 5.972 5.972-2.679 5.972-5.972 5.972z m0-8c-1.118 0-2.028 0.91-2.028 2.028s0.91 2.028 2.028 2.028c1.119 0 2.028-0.91 2.028-2.028s-0.909-2.028-2.028-2.028z" fill="#515151" /><path d="M792.884 380.352m-1.972 0a1.972 1.972 0 1 0 3.944 0 1.972 1.972 0 1 0-3.944 0Z" fill="#2CC4FE" /><path d="M792.884 386.324c-3.293 0-5.972-2.679-5.972-5.972s2.679-5.972 5.972-5.972 5.972 2.679 5.972 5.972-2.679 5.972-5.972 5.972z m0-8c-1.118 0-2.028 0.91-2.028 2.028s0.91 2.028 2.028 2.028 2.028-0.91 2.028-2.028-0.91-2.028-2.028-2.028z" fill="#515151" /><path d="M807.347 380.352m-1.972 0a1.972 1.972 0 1 0 3.944 0 1.972 1.972 0 1 0-3.944 0Z" fill="#2CC4FE" /><path d="M807.347 386.324c-3.293 0-5.972-2.679-5.972-5.972s2.679-5.972 5.972-5.972 5.972 2.679 5.972 5.972-2.679 5.972-5.972 5.972z m0-8c-1.118 0-2.028 0.91-2.028 2.028s0.91 2.028 2.028 2.028c1.119 0 2.028-0.91 2.028-2.028s-0.909-2.028-2.028-2.028z" fill="#515151" /><path d="M821.81 380.352m-1.972 0a1.972 1.972 0 1 0 3.944 0 1.972 1.972 0 1 0-3.944 0Z" fill="#2CC4FE" /><path d="M821.811 386.324c-3.293 0-5.972-2.679-5.972-5.972s2.679-5.972 5.972-5.972 5.972 2.679 5.972 5.972-2.679 5.972-5.972 5.972z m0-8c-1.119 0-2.028 0.91-2.028 2.028s0.91 2.028 2.028 2.028c1.118 0 2.028-0.91 2.028-2.028s-0.91-2.028-2.028-2.028z" fill="#515151" /><path d="M778.421 360.352m-1.972 0a1.972 1.972 0 1 0 3.944 0 1.972 1.972 0 1 0-3.944 0Z" fill="#2CC4FE" /><path d="M778.421 366.324c-3.293 0-5.972-2.679-5.972-5.972s2.679-5.972 5.972-5.972 5.972 2.679 5.972 5.972-2.679 5.972-5.972 5.972z m0-8c-1.118 0-2.028 0.91-2.028 2.028s0.91 2.028 2.028 2.028c1.119 0 2.028-0.91 2.028-2.028s-0.909-2.028-2.028-2.028z" fill="#515151" /><path d="M792.884 360.352m-1.972 0a1.972 1.972 0 1 0 3.944 0 1.972 1.972 0 1 0-3.944 0Z" fill="#2CC4FE" /><path d="M792.884 366.324c-3.293 0-5.972-2.679-5.972-5.972s2.679-5.972 5.972-5.972 5.972 2.679 5.972 5.972-2.679 5.972-5.972 5.972z m0-8c-1.118 0-2.028 0.91-2.028 2.028s0.91 2.028 2.028 2.028 2.028-0.91 2.028-2.028-0.91-2.028-2.028-2.028z" fill="#515151" /><path d="M807.347 360.352m-1.972 0a1.972 1.972 0 1 0 3.944 0 1.972 1.972 0 1 0-3.944 0Z" fill="#2CC4FE" /><path d="M807.347 366.324c-3.293 0-5.972-2.679-5.972-5.972s2.679-5.972 5.972-5.972 5.972 2.679 5.972 5.972-2.679 5.972-5.972 5.972z m0-8c-1.118 0-2.028 0.91-2.028 2.028s0.91 2.028 2.028 2.028c1.119 0 2.028-0.91 2.028-2.028s-0.909-2.028-2.028-2.028z" fill="#515151" /><path d="M821.81 360.352m-1.972 0a1.972 1.972 0 1 0 3.944 0 1.972 1.972 0 1 0-3.944 0Z" fill="#2CC4FE" /><path d="M821.811 366.324c-3.293 0-5.972-2.679-5.972-5.972s2.679-5.972 5.972-5.972 5.972 2.679 5.972 5.972-2.679 5.972-5.972 5.972z m0-8c-1.119 0-2.028 0.91-2.028 2.028s0.91 2.028 2.028 2.028c1.118 0 2.028-0.91 2.028-2.028s-0.91-2.028-2.028-2.028z" fill="#515151" /><path d="M245.518 463.776a4 4 0 0 1-2.829-6.828l63.25-63.25a4 4 0 0 1 5.657 5.657l-63.25 63.25a3.99 3.99 0 0 1-2.828 1.171zM252.518 540.276a4 4 0 0 1-2.829-6.828l134-134a4 4 0 0 1 5.657 5.657l-134 134a3.99 3.99 0 0 1-2.828 1.171z" fill="#EBFAFF" /><path d="M256.115 833.276h128.001" fill="#FC709B" /><path d="M384.116 837.276H256.115a4 4 0 0 1 0-8h128.001a4 4 0 0 1 0 8z" fill="#515151" /><path d="M640.017 833.276h128.001" fill="#FC709B" /><path d="M768.018 837.276H640.017a4 4 0 0 1 0-8h128.001a4 4 0 0 1 0 8z" fill="#515151" /></svg>