<?xml version="1.0" encoding="iso-8859-1"?>
<!-- Uploaded to: SVG Repo, www.svgrepo.com, Generator: SVG Repo Mixer Tools -->
<svg version="1.1" id="Layer_1" xmlns="http://www.w3.org/2000/svg" xmlns:xlink="http://www.w3.org/1999/xlink" 
	 viewBox="0 0 512 512" xml:space="preserve">
<path style="fill:#FFA630;" d="M506.435,411.826H5.565V16.696C5.565,7.475,13.04,0,22.261,0h467.478
	c9.22,0,16.696,7.475,16.696,16.696V411.826z"/>
<path style="fill:#EE8700;" d="M489.739,0H256v411.826h250.435V16.696C506.435,7.475,498.96,0,489.739,0z"/>
<path style="fill:#CC7400;" d="M506.435,495.304c0,9.22-7.475,16.696-16.696,16.696H22.261c-9.22,0-16.696-7.475-16.696-16.696
	v-83.478h500.87V495.304z"/>
<path style="fill:#AA6100;" d="M489.739,512H256V411.826h250.435v83.478C506.435,504.525,498.96,512,489.739,512z"/>
<g>
	<path style="fill:#E3EDED;" d="M322.783,244.87c-9.223,0-16.696-7.473-16.696-16.696v-55.652c0-9.223,7.473-16.696,16.696-16.696
		s16.696,7.473,16.696,16.696v55.652C339.478,237.397,332.005,244.87,322.783,244.87z"/>
	<path style="fill:#E3EDED;" d="M189.217,244.87c-9.223,0-16.696-7.473-16.696-16.696v-55.652c0-9.223,7.473-16.696,16.696-16.696
		s16.696,7.473,16.696,16.696v55.652C205.913,237.397,198.44,244.87,189.217,244.87z"/>
</g>
<rect x="239.304" style="fill:#CC7400;" width="33.391" height="411.826"/>
</svg>