<?xml version="1.0" encoding="iso-8859-1"?>
<!-- Uploaded to: SVG Repo, www.svgrepo.com, Generator: SVG Repo Mixer Tools -->
<svg version="1.1" id="Layer_1" xmlns="http://www.w3.org/2000/svg" xmlns:xlink="http://www.w3.org/1999/xlink" 
	 viewBox="0 0 512 512" xml:space="preserve">
<path style="fill:#A56840;" d="M502.865,188.049C473.095,79.648,373.856,0,256,0C114.615,0,0,114.615,0,256
	c0,117.856,79.648,217.094,188.049,246.865L502.865,188.049z"/>
<path style="fill:#813115;" d="M512,256c0-23.529-3.191-46.309-9.135-67.951l-89.458-89.458L98.592,413.408l89.458,89.458
	c21.641,5.944,44.422,9.135,67.951,9.135C397.385,512,512,397.384,512,256z"/>
<path style="fill:#FFF3AD;" d="M256,33.391L144.696,256L256,478.609c122.943,0,222.609-99.665,222.609-222.609
	S378.943,33.391,256,33.391z"/>
<path style="fill:#FFFFFF;" d="M33.391,256c0,122.943,99.665,222.609,222.609,222.609V33.391
	C133.057,33.391,33.391,133.057,33.391,256z"/>
<path style="fill:#FFD23E;" d="M256,66.783L161.391,256L256,445.217c104.501,0,189.217-84.715,189.217-189.217
	S360.501,66.783,256,66.783z"/>
<path style="fill:#FFE376;" d="M66.783,256c0,104.503,84.716,189.217,189.217,189.217V66.783
	C151.499,66.783,66.783,151.497,66.783,256z"/>
<path style="fill:#FA690E;" d="M400.696,300.522H256l-94.609-116.87L256,66.783c104.501,0,189.217,84.715,189.217,189.217
	C445.217,280.589,425.284,300.522,400.696,300.522z"/>
<path style="fill:#FC870B;" d="M66.783,256c0-104.503,84.716-189.217,189.217-189.217V256H66.783z"/>
<path style="fill:#FFF3AD;" d="M375.652,212.035c0-66.083-53.571-119.652-119.652-119.652l-44.399,150.506L256,400.696
	l119.652-108.522C375.652,281.504,375.652,222.704,375.652,212.035z"/>
<path style="fill:#FFFFFF;" d="M136.348,212.035c0,10.67,0,58.339,0,69.009c0,66.083,53.571,119.652,119.652,119.652V92.383
	C189.919,92.383,136.348,145.952,136.348,212.035z"/>
<path style="fill:#FA690E;" d="M256,114.643l-30.609,61.217L256,237.078c33.81,0,61.217-27.408,61.217-61.217
	S289.81,114.643,256,114.643z"/>
<path style="fill:#FC870B;" d="M194.783,175.861c0,33.81,27.408,61.217,61.217,61.217v-22.261l-16.696-38.957L256,136.904v-22.261
	C222.19,114.643,194.783,142.051,194.783,175.861z"/>
<path style="fill:#FDA409;" d="M217.043,175.861c0,21.515,17.441,38.957,38.957,38.957v-77.913
	C234.485,136.904,217.043,154.346,217.043,175.861z"/>
<rect x="331.13" y="222.609" style="fill:#FFE376;" width="22.261" height="22.261"/>
<path style="fill:#934D2B;" d="M399.471,283.492c18.443,0,33.391,14.948,33.391,33.391s-14.948,33.391-33.391,33.391h-54.428
	l-68.007,22.261l33.391-89.043L399.471,283.492L399.471,283.492z"/>
<path style="fill:#A56840;" d="M310.428,283.492v89.043l-89.043-22.261c-18.443,0-33.391-14.948-33.391-33.391
	c0-9.216,3.74-17.564,9.784-23.608c6.044-6.044,14.392-9.784,23.608-9.784L310.428,283.492L310.428,283.492z"/>
<path style="fill:#F72E12;" d="M128,194.783L97.391,256L128,317.217c33.81,0,61.217-27.408,61.217-61.217
	S161.81,194.783,128,194.783z"/>
<g>
	<path style="fill:#F8513A;" d="M66.783,256c0,33.81,27.408,61.217,61.217,61.217V194.783C94.19,194.783,66.783,222.19,66.783,256z"
		/>
	<path style="fill:#F8513A;" d="M128,217.043L108.522,256L128,294.957c21.515,0,38.957-17.441,38.957-38.957
		S149.515,217.043,128,217.043z"/>
</g>
<path style="fill:#FA7461;" d="M89.043,256c0,21.515,17.441,38.957,38.957,38.957v-77.913
	C106.485,217.043,89.043,234.485,89.043,256z"/>
<path style="fill:#813115;" d="M345.043,350.497c18.443,0,33.391,14.948,33.391,33.391s-14.948,33.391-33.391,33.391H256
	l-33.391-33.391L256,350.497H345.043z"/>
<path style="fill:#934D2B;" d="M256,350.497v66.783h-89.043c-18.443,0-33.391-14.948-33.391-33.391
	c0-9.216,3.74-17.564,9.784-23.608c6.044-6.044,14.392-9.784,23.608-9.784H256z"/>
<g>
	<rect x="332.689" y="305.753" style="fill:#813115;" width="22.261" height="22.261"/>
	<rect x="377.21" y="305.753" style="fill:#813115;" width="22.261" height="22.261"/>
	<rect x="166.957" y="372.758" style="fill:#813115;" width="22.261" height="22.261"/>
	<rect x="211.478" y="372.758" style="fill:#813115;" width="22.261" height="22.261"/>
</g>
</svg>